<svg width="221" height="78" viewBox="0 0 221 78" fill="none" xmlns="http://www.w3.org/2000/svg">
<g clip-path="url(#clip0_38_874)">
<path d="M29.3526 78L17.3833 56.0337H14.0215V78H0V19.8101H23.5305C28.066 19.8101 31.9351 20.612 35.1309 22.2135C38.329 23.8173 40.7201 26.0132 42.3042 28.8036C43.8883 31.594 44.6814 34.7037 44.6814 38.1282C44.6814 41.9979 43.6023 45.4503 41.4441 48.4901C39.2836 51.5299 36.1016 53.6839 31.8936 54.9544L45.1749 77.9977H29.3503L29.3526 78ZM14.0192 46.0051H22.7097C25.2783 46.0051 27.2059 45.371 28.4902 44.0982C29.7746 42.8278 30.4179 41.0304 30.4179 38.711C30.4179 36.3915 29.7746 34.7597 28.4902 33.4892C27.2059 32.2187 25.2783 31.5823 22.7097 31.5823H14.0192V46.0051Z" fill="white"/>
<path d="M53.3327 13.1383C51.774 11.6744 50.9969 9.86306 50.9969 7.70908C50.9969 5.55511 51.7763 3.66222 53.3327 2.19594C54.8914 0.731978 56.8997 0 59.3577 0C61.8157 0 63.7433 0.731978 65.302 2.19594C66.8607 3.65989 67.6378 5.49916 67.6378 7.70908C67.6378 9.91901 66.8584 11.6744 65.302 13.1383C63.7433 14.6023 61.7626 15.3342 59.3577 15.3342C56.9528 15.3342 54.8891 14.6023 53.3327 13.1383ZM66.3281 20.1411V66.3932H52.3089V20.1411H66.3281Z" fill="white"/>
<path d="M89.6949 31.1674V42.9373H108.471V53.8797H89.6949V66.645H110.929V78H75.6735V19.8101H110.929V31.165H89.6949V31.1674Z" fill="white"/>
<path d="M155.126 67.7197H133.645L130.203 77.9977H115.527L136.352 19.8101H152.585L173.411 77.9977H158.571L155.128 67.7197H155.126ZM151.518 56.7796L144.383 35.4777L137.332 56.7796H151.515H151.518Z" fill="white"/>
<path d="M221 19.8101L200.585 77.9977H183.04L162.625 19.8101H177.545L191.811 63.7404L206.16 19.8101H221Z" fill="white"/>
</g>
<defs>
<clipPath id="clip0_38_874">
<rect width="221" height="78" fill="white"/>
</clipPath>
</defs>
</svg>
